<?xml version="1.0" encoding="UTF-8" standalone="no"?>
<!-- Created with Inkscape (http://www.inkscape.org/) -->

<svg
   xmlns:dc="http://purl.org/dc/elements/1.1/"
   xmlns:cc="http://creativecommons.org/ns#"
   xmlns:rdf="http://www.w3.org/1999/02/22-rdf-syntax-ns#"
   xmlns:svg="http://www.w3.org/2000/svg"
   xmlns="http://www.w3.org/2000/svg"
   xmlns:sodipodi="http://sodipodi.sourceforge.net/DTD/sodipodi-0.dtd"
   xmlns:inkscape="http://www.inkscape.org/namespaces/inkscape"
   width="120"
   height="108.97145"
   viewBox="0 0 31.75 28.83203"
   version="1.1"
   id="svg1620"
   inkscape:version="0.92.3 (2405546, 2018-03-11)"
   sodipodi:docname="logo-igreja.svg">
  <defs
     id="defs1614">
    <inkscape:path-effect
       effect="skeletal"
       id="path-effect880"
       is_visible="true"
       pattern="m 3.0238095,5 c 0,-2.76 2.24,-5 5.0000004,-5 2.7600001,0 5.0000001,2.24 5.0000001,5 0,2.76 -2.24,5 -5.0000001,5 C 5.2638095,10 3.0238095,7.76 3.0238095,5 Z"
       copytype="single_stretched"
       prop_scale="0.26458334"
       scale_y_rel="false"
       spacing="0"
       normal_offset="0"
       tang_offset="0"
       prop_units="false"
       vertical_pattern="false"
       fuse_tolerance="0" />
    <inkscape:path-effect
       effect="skeletal"
       id="path-effect875"
       is_visible="true"
       pattern="m 4.2763124,-7.8289371 c 0,-2.7599999 2.24,-4.9999999 5,-4.9999999 2.7599996,0 4.9999996,2.24 4.9999996,4.9999999 0,2.76 -2.24,5 -4.9999996,5 -2.76,0 -5,-2.24 -5,-5 z"
       copytype="single_stretched"
       prop_scale="0.26458334"
       scale_y_rel="false"
       spacing="0"
       normal_offset="0"
       tang_offset="0"
       prop_units="false"
       vertical_pattern="false"
       fuse_tolerance="0" />
    <inkscape:path-effect
       fuse_tolerance="0"
       vertical_pattern="false"
       prop_units="false"
       tang_offset="0"
       normal_offset="0"
       spacing="0"
       scale_y_rel="false"
       prop_scale="0.18716309"
       copytype="single_stretched"
       pattern="m -1.1103021,9.0788789 c 0,-2.76 2.24,-5 5,-5 2.76,0 5,2.24 5,5 0,2.7600001 -2.24,5.0000001 -5,5.0000001 -2.76,0 -5,-2.24 -5,-5.0000001 z"
       is_visible="true"
       id="path-effect888"
       effect="skeletal" />
    <inkscape:path-effect
       fuse_tolerance="0"
       vertical_pattern="false"
       prop_units="false"
       tang_offset="0"
       normal_offset="0"
       spacing="0"
       scale_y_rel="false"
       prop_scale="0.18716309"
       copytype="single_stretched"
       pattern="m -1.1103021,9.0788789 c 0,-2.76 2.24,-5 5,-5 2.76,0 5,2.24 5,5 0,2.7600001 -2.24,5.0000001 -5,5.0000001 -2.76,0 -5,-2.24 -5,-5.0000001 z"
       is_visible="true"
       id="path-effect885"
       effect="skeletal" />
    <inkscape:path-effect
       fuse_tolerance="0"
       vertical_pattern="false"
       prop_units="false"
       tang_offset="0"
       normal_offset="0"
       spacing="0"
       scale_y_rel="false"
       prop_scale="0.18716309"
       copytype="single_stretched"
       pattern="m -1.1103021,9.0788789 c 0,-2.76 2.24,-5 5,-5 2.76,0 5,2.24 5,5 0,2.7600001 -2.24,5.0000001 -5,5.0000001 -2.76,0 -5,-2.24 -5,-5.0000001 z"
       is_visible="true"
       id="path-effect882"
       effect="skeletal" />
    <inkscape:path-effect
       fuse_tolerance="0"
       vertical_pattern="false"
       prop_units="false"
       tang_offset="0"
       normal_offset="0"
       spacing="0"
       scale_y_rel="false"
       prop_scale="0.18716309"
       copytype="single_stretched"
       pattern="m -1.1103021,9.0788789 c 0,-2.76 2.24,-5 5,-5 2.76,0 5,2.24 5,5 0,2.7600001 -2.24,5.0000001 -5,5.0000001 -2.76,0 -5,-2.24 -5,-5.0000001 z"
       is_visible="true"
       id="path-effect879"
       effect="skeletal" />
    <inkscape:path-effect
       fuse_tolerance="0"
       vertical_pattern="false"
       prop_units="false"
       tang_offset="0"
       normal_offset="0"
       spacing="0"
       scale_y_rel="false"
       prop_scale="0.18716309"
       copytype="single_stretched"
       pattern="m -1.1103021,9.0788789 c 0,-2.76 2.24,-5 5,-5 2.76,0 5,2.24 5,5 0,2.7600001 -2.24,5.0000001 -5,5.0000001 -2.76,0 -5,-2.24 -5,-5.0000001 z"
       is_visible="true"
       id="path-effect876"
       effect="skeletal" />
    <inkscape:path-effect
       fuse_tolerance="0"
       vertical_pattern="false"
       prop_units="false"
       tang_offset="0"
       normal_offset="0"
       spacing="0"
       scale_y_rel="false"
       prop_scale="0.18716309"
       copytype="single_stretched"
       pattern="m -1.1103021,9.0788789 c 0,-2.76 2.24,-5 5,-5 2.76,0 5,2.24 5,5 0,2.7600001 -2.24,5.0000001 -5,5.0000001 -2.76,0 -5,-2.24 -5,-5.0000001 z"
       is_visible="true"
       id="path-effect873"
       effect="skeletal" />
    <inkscape:path-effect
       fuse_tolerance="0"
       vertical_pattern="false"
       prop_units="false"
       tang_offset="0"
       normal_offset="0"
       spacing="0"
       scale_y_rel="false"
       prop_scale="0.18716309"
       copytype="single_stretched"
       pattern="m -1.1103021,9.0788789 c 0,-2.76 2.24,-5 5,-5 2.76,0 5,2.24 5,5 0,2.7600001 -2.24,5.0000001 -5,5.0000001 -2.76,0 -5,-2.24 -5,-5.0000001 z"
       is_visible="true"
       id="path-effect870"
       effect="skeletal" />
    <inkscape:path-effect
       fuse_tolerance="0"
       vertical_pattern="false"
       prop_units="false"
       tang_offset="0"
       normal_offset="0"
       spacing="0"
       scale_y_rel="false"
       prop_scale="0.18716309"
       copytype="single_stretched"
       pattern="m -1.1103021,9.0788789 c 0,-2.76 2.24,-5 5,-5 2.76,0 5,2.24 5,5 0,2.7600001 -2.24,5.0000001 -5,5.0000001 -2.76,0 -5,-2.24 -5,-5.0000001 z"
       is_visible="true"
       id="path-effect867"
       effect="skeletal" />
    <inkscape:path-effect
       fuse_tolerance="0"
       vertical_pattern="false"
       prop_units="false"
       tang_offset="0"
       normal_offset="0"
       spacing="0"
       scale_y_rel="false"
       prop_scale="0.18716309"
       copytype="single_stretched"
       pattern="m -1.1103021,9.0788789 c 0,-2.76 2.24,-5 5,-5 2.76,0 5,2.24 5,5 0,2.7600001 -2.24,5.0000001 -5,5.0000001 -2.76,0 -5,-2.24 -5,-5.0000001 z"
       is_visible="true"
       id="path-effect864"
       effect="skeletal" />
    <inkscape:path-effect
       effect="skeletal"
       id="path-effect1412-9"
       is_visible="true"
       pattern="m -1.1103021,9.0788789 c 0,-2.76 2.24,-5 5,-5 2.76,0 5,2.24 5,5 0,2.7600001 -2.24,5.0000001 -5,5.0000001 -2.76,0 -5,-2.24 -5,-5.0000001 z"
       copytype="single_stretched"
       prop_scale="1"
       scale_y_rel="false"
       spacing="0"
       normal_offset="0"
       tang_offset="0"
       prop_units="false"
       vertical_pattern="false"
       fuse_tolerance="0" />
    <inkscape:path-effect
       effect="skeletal"
       id="path-effect1416-2"
       is_visible="true"
       pattern="m -1.1103021,9.0788789 c 0,-2.76 2.24,-5 5,-5 2.76,0 5,2.24 5,5 0,2.7600001 -2.24,5.0000001 -5,5.0000001 -2.76,0 -5,-2.24 -5,-5.0000001 z"
       copytype="single_stretched"
       prop_scale="1"
       scale_y_rel="false"
       spacing="0"
       normal_offset="0"
       tang_offset="0"
       prop_units="false"
       vertical_pattern="false"
       fuse_tolerance="0" />
    <inkscape:path-effect
       effect="skeletal"
       id="path-effect1432-6"
       is_visible="true"
       pattern="m -1.1103021,9.0788789 c 0,-2.76 2.24,-5 5,-5 2.76,0 5,2.24 5,5 0,2.7600001 -2.24,5.0000001 -5,5.0000001 -2.76,0 -5,-2.24 -5,-5.0000001 z"
       copytype="single_stretched"
       prop_scale="1"
       scale_y_rel="false"
       spacing="0"
       normal_offset="0"
       tang_offset="0"
       prop_units="false"
       vertical_pattern="false"
       fuse_tolerance="0" />
    <inkscape:path-effect
       effect="skeletal"
       id="path-effect1452-5"
       is_visible="true"
       pattern="m -1.1103021,9.0788789 c 0,-2.76 2.24,-5 5,-5 2.76,0 5,2.24 5,5 0,2.7600001 -2.24,5.0000001 -5,5.0000001 -2.76,0 -5,-2.24 -5,-5.0000001 z"
       copytype="single_stretched"
       prop_scale="1"
       scale_y_rel="false"
       spacing="0"
       normal_offset="0"
       tang_offset="0"
       prop_units="false"
       vertical_pattern="false"
       fuse_tolerance="0" />
    <inkscape:path-effect
       effect="skeletal"
       id="path-effect1456-3"
       is_visible="true"
       pattern="m -1.1103021,9.0788789 c 0,-2.76 2.24,-5 5,-5 2.76,0 5,2.24 5,5 0,2.7600001 -2.24,5.0000001 -5,5.0000001 -2.76,0 -5,-2.24 -5,-5.0000001 z"
       copytype="single_stretched"
       prop_scale="1"
       scale_y_rel="false"
       spacing="0"
       normal_offset="0"
       tang_offset="0"
       prop_units="false"
       vertical_pattern="false"
       fuse_tolerance="0" />
    <inkscape:path-effect
       effect="skeletal"
       id="path-effect1460-5"
       is_visible="true"
       pattern="m -1.1103021,9.0788789 c 0,-2.76 2.24,-5 5,-5 2.76,0 5,2.24 5,5 0,2.7600001 -2.24,5.0000001 -5,5.0000001 -2.76,0 -5,-2.24 -5,-5.0000001 z"
       copytype="single_stretched"
       prop_scale="1"
       scale_y_rel="false"
       spacing="0"
       normal_offset="0"
       tang_offset="0"
       prop_units="false"
       vertical_pattern="false"
       fuse_tolerance="0" />
    <inkscape:path-effect
       effect="skeletal"
       id="path-effect1464-7"
       is_visible="true"
       pattern="m -1.1103021,9.0788789 c 0,-2.76 2.24,-5 5,-5 2.76,0 5,2.24 5,5 0,2.7600001 -2.24,5.0000001 -5,5.0000001 -2.76,0 -5,-2.24 -5,-5.0000001 z"
       copytype="single_stretched"
       prop_scale="1"
       scale_y_rel="false"
       spacing="0"
       normal_offset="0"
       tang_offset="0"
       prop_units="false"
       vertical_pattern="false"
       fuse_tolerance="0" />
    <inkscape:path-effect
       effect="skeletal"
       id="path-effect1468-6"
       is_visible="true"
       pattern="m -1.1103021,9.0788789 c 0,-2.76 2.24,-5 5,-5 2.76,0 5,2.24 5,5 0,2.7600001 -2.24,5.0000001 -5,5.0000001 -2.76,0 -5,-2.24 -5,-5.0000001 z"
       copytype="single_stretched"
       prop_scale="1"
       scale_y_rel="false"
       spacing="0"
       normal_offset="0"
       tang_offset="0"
       prop_units="false"
       vertical_pattern="false"
       fuse_tolerance="0" />
    <inkscape:path-effect
       effect="skeletal"
       id="path-effect1476-3"
       is_visible="true"
       pattern="m -1.1103021,9.0788789 c 0,-2.76 2.24,-5 5,-5 2.76,0 5,2.24 5,5 0,2.7600001 -2.24,5.0000001 -5,5.0000001 -2.76,0 -5,-2.24 -5,-5.0000001 z"
       copytype="single_stretched"
       prop_scale="1"
       scale_y_rel="false"
       spacing="0"
       normal_offset="0"
       tang_offset="0"
       prop_units="false"
       vertical_pattern="false"
       fuse_tolerance="0" />
  </defs>
  <sodipodi:namedview
     id="base"
     pagecolor="#ffffff"
     bordercolor="#666666"
     borderopacity="1.0"
     inkscape:pageopacity="0.0"
     inkscape:pageshadow="2"
     inkscape:zoom="0.7"
     inkscape:cx="279.06532"
     inkscape:cy="50.814501"
     inkscape:document-units="px"
     inkscape:current-layer="layer1"
     showgrid="false"
     inkscape:window-width="1280"
     inkscape:window-height="716"
     inkscape:window-x="0"
     inkscape:window-y="25"
     inkscape:window-maximized="1"
     showborder="false"
     inkscape:snap-nodes="false"
     inkscape:snap-others="false"
     fit-margin-top="0"
     fit-margin-left="0"
     fit-margin-right="0"
     fit-margin-bottom="0"
     showguides="false"
     units="px"
     inkscape:snap-global="false" />
  <metadata
     id="metadata1617">
    <rdf:RDF>
      <cc:Work
         rdf:about="">
        <dc:format>image/svg+xml</dc:format>
        <dc:type
           rdf:resource="http://purl.org/dc/dcmitype/StillImage" />
        <dc:title></dc:title>
      </cc:Work>
    </rdf:RDF>
  </metadata>
  <g
     inkscape:label="Camada 1"
     inkscape:groupmode="layer"
     id="layer1"
     transform="translate(-590.33007,-215.30297)">
    <path
       inkscape:connector-curvature="0"
       id="path850"
       d="m 608.62577,215.30297 c 0,0 0.0104,1.32011 -1.11464,2.71599 -1.12529,1.39586 -4.60958,4.07944 -5.86485,5.25888 -1.25512,1.17947 -2.60812,2.77515 -2.97533,4.39725 -0.36727,1.62211 -0.16839,1.89757 -0.16839,2.49439 0,0.59679 0.0794,0.69343 0.0794,0.69343 l 0.0197,-0.24396 c 0,0 0.18763,-2.02817 1.75665,-3.7162 1.56897,-1.68804 4.34996,-3.9496 5.19393,-4.75032 0.844,-0.80074 2.08839,-2.07758 2.75926,-3.93873 0.67088,-1.86116 0.31385,-2.91073 0.31385,-2.91073 z m 0.0254,3.14296 c -0.0333,-6e-4 -0.0536,0.72311 -0.67228,1.70696 -0.36499,0.57778 -0.82002,1.12565 -1.47515,1.81116 -0.60105,0.62812 -1.21855,1.2087 -1.97668,1.91132 -0.63508,0.58845 -1.38777,1.27664 -2.07443,1.94421 -1.9e-4,1.2e-4 -0.0521,0.0511 -0.0529,0.0511 -0.71028,0.69248 -1.34839,1.35818 -1.92207,2.06448 -0.57709,0.70967 -1.03517,1.39596 -1.35826,2.12105 -0.34634,0.7754 -0.47297,1.50857 -0.41923,2.15922 0.10285,1.19369 0.63838,1.74426 0.85107,1.9694 -0.0105,-0.0153 -0.0241,-0.0365 -0.0373,-0.0546 0.0184,0.0257 0.0347,0.0482 0.0498,0.0679 -0.008,-0.005 -0.008,-0.008 -0.0123,-0.0131 0.0447,0.0628 0.0754,0.10424 0.0812,0.11973 1.8e-4,0.003 3.5e-4,0.004 0,0.006 0.0316,0.29926 0.124,0.56972 0.24537,0.79661 0.16874,0.3146 0.39397,0.56176 0.59018,0.74157 0.44621,0.4092 0.79374,0.57107 0.92366,0.62907 0.008,0.003 0.0268,0.0166 0.0268,0.0166 v -0.005 c 0.0194,0.009 0.0329,0.015 0.0312,0.0169 0,-0.003 -0.0123,-0.013 -0.0329,-0.0267 l -0.0347,-0.30104 c 0.008,0.009 0.015,0.0174 0.0215,0.0256 -0.18373,-0.28605 -0.43661,-0.80196 -0.47086,-1.57148 -0.0236,-0.47816 0.1004,-1.02207 0.41353,-1.57506 0.29139,-0.51452 0.69128,-0.97766 1.1986,-1.47884 0.51205,-0.5049 1.03993,-0.95288 1.66655,-1.48629 0.56386,-0.47975 1.20619,-1.02454 1.80023,-1.59439 0.55499,-0.53207 1.11661,-1.13097 1.59717,-1.81066 0.44578,-0.63035 0.82681,-1.34962 1.04871,-2.13937 0.18028,-0.81826 0.17738,-1.69955 -0.008,-2.57138 -0.008,0.0177 -0.0123,0.0355 -0.0184,0.0531 0,-0.009 -0.008,-0.0295 -0.008,-0.0295 0,0 -0.0197,0.0795 -0.0581,0.20546 -0.0215,0.0556 -0.0438,0.11134 -0.067,0.1666 -0.24498,0.5744 -0.5878,1.11454 -0.9603,1.61742 -0.48086,0.72747 -1.04366,1.39489 -1.60646,2.01368 -1.31896,1.4496 -2.68419,2.69017 -3.82264,3.89019 -0.5986,0.63051 -1.10955,1.21113 -1.55056,1.83584 -0.41546,0.58627 -0.72053,1.14766 -0.86413,1.7459 -0.0655,0.27405 -0.0873,0.54259 -0.0663,0.79759 -0.0359,-0.16505 -0.27335,-0.9007 -0.015,-1.98789 0.13765,-0.58293 0.41534,-1.18805 0.86637,-1.84855 0.41279,-0.6034 0.90976,-1.16947 1.51248,-1.78531 0.58938,-0.60176 1.18661,-1.15393 1.8667,-1.78731 0.0521,-0.0482 0.28148,-0.26185 0.33338,-0.31021 1.33732,-1.24646 2.38708,-2.28483 3.24298,-3.52649 0.53038,-0.76969 0.878,-1.49263 1.08271,-2.17787 0.36551,-1.22606 0.2097,-2.03873 0.15041,-2.30263 0,-0.0648 -0.0118,-0.10128 -0.0193,-0.10142 z m -7.24709,17.75896 c 0.11382,0.17709 0.20124,0.26649 0.19339,0.27205 0.0463,-0.0328 -0.0521,-0.10837 -0.19339,-0.27205 z m 7.24371,-14.16544 c 0,0.0314 0.008,0.0628 0.008,0.0942 -0.008,-0.0244 -0.0105,-0.0469 -0.0141,-0.0651 0,-0.0103 0,-0.0194 0.008,-0.0291 z m 2.29736,2.19033 c 0,0.003 0,0.005 0,0.009 -0.008,-0.004 -0.008,-0.008 0,-0.009 z m 0,0 c -0.008,0.005 0,0.0142 0.0104,0.029 -0.0104,-0.0163 -0.0141,-0.0261 -0.0104,-0.029 z m 0.0104,0.029 c 0.0707,0.11793 0.45333,0.59026 0.57782,1.42092 0.0528,0.34152 0.0211,0.74633 -0.14958,1.14776 -0.15404,0.36581 -0.39656,0.70133 -0.70324,1.05531 -0.32095,0.3689 -0.66282,0.69813 -1.05297,1.07955 -0.20436,0.19911 -0.41622,0.40754 -0.6244,0.62129 -0.64872,0.66638 -1.18214,1.30613 -1.5837,2.01962 -0.34529,0.6155 -0.54903,1.22054 -0.65215,1.76922 -0.25414,1.35691 0.0617,2.16796 0.0505,2.16941 0.0105,-9.8e-4 0.009,-0.0539 0,-0.14502 0,0.0148 0.008,0.0298 0.009,0.0426 -0.0215,0.26371 0.0521,0.39792 0.0588,0.39651 0.0215,-0.005 -0.0272,-0.23757 0.10465,-0.60789 0.0722,-0.20151 0.18128,-0.40644 0.35331,-0.65971 0.33511,-0.49233 0.71238,-0.89842 1.29769,-1.50085 0.65123,-0.66827 1.74718,-1.70684 2.50583,-2.66284 0.22133,-0.27897 0.42554,-0.56153 0.61122,-0.85218 0.60566,-0.94171 0.94635,-1.87991 0.90411,-2.79732 -0.0272,-0.54539 -0.20779,-1.01598 -0.4339,-1.37313 -0.5132,-0.80666 -1.07915,-1.03857 -1.23877,-1.11772 l -0.0468,-0.0342 c 0,0 0.008,0.0116 0.009,0.0138 0,-9.8e-4 -0.008,-0.004 -0.008,-0.005 0,0.003 0.008,0.007 0.0118,0.0103 0.008,0.009 0.0104,0.0151 0.0285,0.043 -0.0136,-0.0132 -0.0254,-0.0251 -0.0329,-0.0341 z m 1.86045,2.15058 c 0.0492,0.53 0.009,1.06787 -0.12489,1.58136 -0.0833,0.48184 -0.25536,0.94275 -0.47568,1.36678 -0.48955,0.94454 -1.23851,1.76578 -1.90531,2.48321 -0.88322,0.94757 -1.56827,1.63381 -2.22134,2.52034 -0.81804,1.1087 -1.20886,2.12899 -1.33211,3.02051 -0.008,0.0596 -0.009,0.11679 -0.009,0.16804 -1.8e-4,0.024 -1.8e-4,0.0479 1.3e-4,0.0713 0,0.008 1.8e-4,0.0159 3.4e-4,0.0236 0,0.003 9e-5,0.006 1.4e-4,0.009 0.0478,0.97298 0.087,1.54993 0.11203,1.62369 -0.008,0.0218 -0.009,0.0369 -0.009,0.0372 h 1.4e-4 c 0.0391,0.0148 0.58517,-1.60748 2.34481,-3.61117 0.70777,-0.80585 1.62525,-1.64798 2.55158,-2.67004 0.3552,-0.39154 0.71536,-0.82572 1.02007,-1.30935 0.27804,-0.44117 0.51092,-0.93593 0.64847,-1.47171 0.14303,-0.56091 0.17725,-1.15567 0.11335,-1.75124 -0.11634,-0.66137 -0.34647,-1.30958 -0.64395,-1.94439 -0.0229,-0.0495 -0.0468,-0.0987 -0.0707,-0.14762 z m 0.96406,3.56524 c -0.0285,-0.003 -0.0685,0.29806 -0.22226,0.79159 -0.15681,0.5049 -0.43024,1.16793 -0.94458,1.8986 -0.49705,0.70592 -1.09705,1.33609 -1.86316,2.072 -0.0434,0.0413 -0.0859,0.0823 -0.12868,0.12325 -0.85485,0.81473 -1.46581,1.35893 -2.10015,2.08798 -0.55829,0.63959 -0.89025,1.17772 -1.09332,1.63808 -0.19231,0.43584 -0.22792,0.70648 -0.20766,0.71268 0,4.1e-4 0.008,-9.8e-4 0.0118,-0.008 0,0.0282 0.008,0.048 0.029,0.0621 -0.0254,0.003 -0.0434,0.006 -0.0434,0.0116 0,-0.0217 0.55881,0.14789 1.53524,0.0696 0.47723,-0.47549 1.12381,-1.06822 1.83824,-1.7837 0.50714,-0.51414 1.06145,-1.10632 1.57893,-1.75425 0.14568,-0.18226 0.2852,-0.36507 0.41884,-0.54898 0.66646,-0.91543 1.12109,-1.77452 1.36449,-2.64509 0.45648,-1.63208 -0.1004,-2.58357 -0.16729,-2.71171 0,-0.003 0,-0.004 0,-0.007 0,-0.006 0,-0.0103 0,-0.0103 z m -10.16458,7.37858 c -2.57781,4.1e-4 -9.33891,1.40419 -9.33891,1.40419 l -3.9465,5.34207 c 0,0 4.47974,-0.81779 9.81288,-1.77776 5.33328,-0.95997 5.40438,1.81332 5.40438,1.81332 l 0.0536,-3.6977 -1.86666,0.0534 v -1.29772 l 1.84494,-0.0166 c -0.18904,-0.0451 0.30713,-1.32849 -1.22323,-1.75476 -0.17016,-0.0475 -0.42367,-0.0684 -0.74023,-0.0684 z m 7.79831,0.25751 c 0,0 -2.34657,2.23994 -3.44874,3.62657 -1.10218,1.38664 -1.10763,2.89725 -1.10763,2.89725 0,0 0.61873,-1.59945 2.09419,-1.79501 1.47554,-0.19555 2.87993,-0.009 4.4532,0.31994 1.57331,0.32887 8.67526,1.42217 8.67526,1.42217 l -3.87531,-5.29763 z m -4.53264,1.59525 c 0,0.004 0,0.008 0,0.0116 3.9e-4,-0.004 0,-0.006 0,-0.0103 0,1.6e-4 0,-8e-5 0,-1.6e-4 z m 0.81716,1.28466 -0.88878,0.009 0.0888,1.88438 c 0,0 0.16005,-1.07555 0.48003,-1.48443 z"
       style="fill:#469d28;fill-opacity:1;stroke:none;stroke-width:0.04284769px;stroke-linecap:butt;stroke-linejoin:miter;stroke-opacity:1"
       inkscape:export-filename="/home/solucaocriativa/Development/meu_compromisso/src/assets/logoIgrejaGreen.png"
       inkscape:export-xdpi="112"
       inkscape:export-ydpi="112" />
  </g>
</svg>
